<?xml version="1.0" encoding="utf-8"?>
<!-- Generator: Adobe Illustrator 19.1.0, SVG Export Plug-In . SVG Version: 6.00 Build 0)  -->
<!DOCTYPE svg PUBLIC "-//W3C//DTD SVG 1.1//EN" "http://www.w3.org/Graphics/SVG/1.1/DTD/svg11.dtd">
<svg version="1.1" xmlns="http://www.w3.org/2000/svg" xmlns:xlink="http://www.w3.org/1999/xlink" x="0px" y="0px"
	 viewBox="-107 -41.5 283.5 283.5" style="enable-background:new -107 -41.5 283.5 283.5;" xml:space="preserve">
<style type="text/css">
	.st0{fill:#FFFFFF;}
	.st1{display:none;}
	.st2{display:inline;}
	.st3{display:inline;fill:none;stroke:#FFFFFF;stroke-miterlimit:10;}
</style>
<g id="Layer_2">
	<g>
		<g>
			<path class="st0" d="M39.5,8.2c-1.5,3.1-5.7,3.6-9,3.7c-2.4,0.1-4.8,0-6.3,0c-2.1-0.1-2.6-0.7-2.7-1.8l-0.1-1.4
				c-0.1-1.8,0.3-2.5,2-2.5c1.3-0.1,1.7,0,2.6,0.1c0.8,0,2.1,0.1,4.8,0S33.7,6,33.7,4c-0.1-2.1,0.1-2.6-1.3-3.1
				c-1.8-0.6-3.6-1.3-5.4-1.9c-4.6-1.7-5.7-2.7-5.9-7.7c-0.2-4,0.6-6.9,5.5-7.8c1.3-0.2,2.8-0.3,4.7-0.4c1.9-0.1,3,0,4.8,0
				c2.1,0,2.7,0.7,2.7,1.8l0.1,1.3c0.1,1.8-0.3,2.5-2,2.5c-1.5,0.1-3-0.1-4.5,0c-0.8,0-2.3,0.1-3.1,0.1c-1.9,0.1-1.8,1-1.7,2.6
				c0.1,1.2,0.1,1.5,1.3,1.9c1.2,0.4,2.4,0.8,3.5,1.2c6.2,2.2,7.5,2.9,7.7,7.7C40.1,3.9,40.2,6.7,39.5,8.2z"/>
			<path class="st0" d="M48.5,12.5l-1.6-0.2c-1.7-0.2-2.6-0.8-2.3-2.7l2.2-15.3c0.2-1.7,1.2-2.2,2.6-2l2,0.3c1.7,0.2,2,1.7,1.8,2.6
				L51,10.5C50.8,11.8,50.1,12.7,48.5,12.5z M51.8-10.2l-1.6-0.2c-1.7-0.2-2.6-0.7-2.3-2.7l0.2-1.4c0.2-1.7,1.2-2.1,2.6-1.9l2,0.3
				c1.7,0.2,2,1.7,1.8,2.6l-0.2,1.4C54.1-10.8,53.4-9.9,51.8-10.2z"/>
			<path class="st0" d="M69.7,24.7c-2.2,1.6-5.4,1.6-8.8,0.4c-2.6-0.9-5.8-2.3-7.3-3.4c-1-0.7-1.1-1.8-0.7-2.8
				c0.4-1.1,1-2.7,2.7-2.1c0.2,0.1,0.8,0.4,0.9,0.5c2,1.3,4.1,2.4,6.3,3.1c2.5,0.9,2.9-1.1,3.7-3c-1.6-0.3-3-0.6-4.3-1.1
				c-5.7-2-6.8-5.6-4.6-12.1c1.2-3.5,2.9-6.1,5.1-7.3c2.6-1.5,4.8-1.3,9.2,0.2c1.8,0.6,3.3,1.1,5.4,2.1c1.5,0.7,1.7,1.5,1.3,2.9
				l-6.6,19C71.3,23,70.9,23.8,69.7,24.7z M71.7,2.6c-0.8-0.3-1.6-0.6-2.7-1c-1.9-0.7-2.3-0.4-2.8,0c-0.7,0.7-1.7,2.5-2.3,4.4
				C63.5,7,63.2,8,63,9.1c-0.4,2.1-0.1,2.4,1.3,2.9c1,0.3,2.4,0.6,3.8,0.7L71.7,2.6z"/>
			<path class="st0" d="M89.7,30.1l-1.3-0.8c-1.4-0.9-2.1-1.8-1-3.4l5.7-8.7c1-1.6,1.5-2.5,0.7-3.1c-1.4-0.9-3.1-1.1-5-0.9l-6.2,9.4
				c-0.7,1.1-1.7,1.6-3,0.7l-1.3-0.8c-1.4-0.9-2.1-1.8-1-3.4l8.6-13c0.9-1.4,1.9-1.4,3.2-0.6l1.6,1c0.8,0.5,1,1.1,1,1.7
				c2,0.1,3.8,0.6,5.5,1.8c4.6,3.1,4,6.6,2.5,8.9l-6.9,10.4C92,30.4,91.1,31,89.7,30.1z"/>
			<path class="st0" d="M103.9,44.5l-1-1.2c-1.1-1.3-1.4-2.3,0.1-3.6l11.9-9.9c1.3-1.1,2.3-0.8,3.3,0.3l1.3,1.5
				c1.1,1.3,0.3,2.6-0.4,3.2l-11.9,9.9C106.1,45.5,105,45.7,103.9,44.5z M121.5,29.9l-1-1.2c-1.1-1.3-1.5-2.3,0.1-3.5l1.1-0.9
				c1.3-1.1,2.3-0.8,3.2,0.3l1.3,1.5c1.1,1.3,0.3,2.6-0.4,3.1l-1.1,0.9C123.7,30.9,122.6,31.1,121.5,29.9z"/>
			<path class="st0" d="M116.1,63.9l-0.7-1.3c-0.8-1.5-1-2.5,0.7-3.4l9.1-5c1.7-0.9,2.5-1.5,2-2.4c-0.8-1.5-2.2-2.4-4-3.2l-9.9,5.4
				c-1.1,0.6-2.2,0.6-3-0.8l-0.7-1.3c-0.8-1.5-1-2.5,0.7-3.4l13.7-7.5c1.4-0.8,2.4-0.3,3.1,1l0.9,1.7c0.4,0.8,0.3,1.5,0,2
				c1.7,1,3.1,2.3,4,4.2c2.7,4.9,0.4,7.7-2,9l-10.9,6C118,65.3,116.9,65.3,116.1,63.9z"/>
		</g>
		<g>
			<path class="st0" d="M-5.5,114.7l-1.4-0.9c-2,2.5-3.7,4.7-5.3,6.7l6.7,4.7l13.5,9.4l13.4,9.3c1.3-2.1,2.8-4.6,4.5-7.3l-3-2.1
				L-5.5,114.7z"/>
			<path class="st0" d="M-5.5,86.8C-0.5,87,5,86.3,10.9,84.6c-3.4-5.8-6.7-13.7-10-21.7C-1.2,58-3.3,53-5.5,48.5
				C-6.8,46-8,43.7-9.3,41.6c-6-9.8-12.8-14.6-21.5-6.2c-8.3,8.1-10.5,18.3-8.1,27.5c2.4,9.1,9.4,17.2,19.8,21.2
				C-15,85.7-10.5,86.7-5.5,86.8z"/>
			<path class="st0" d="M101.8,116.3c-2.2-0.9-4.7-1.7-7.6-2.3c-8.1-1.6-18.4-2-28.2-2.5c-7-0.3-13.7-0.8-19.1-1.7
				c0.7,10.2,3.7,18.4,8.1,24.6c0.8,1.2,1.7,2.3,2.6,3.3c12.4,14,32.5,15.2,44.1,2.8c2.2-2.4,4.1-5.2,5.6-8.6
				C111.2,123.8,108.3,119.1,101.8,116.3z"/>
			<path class="st0" d="M57.9,96.1c7.3-10.5,4.8-24.8-5.7-32.2c-6.7-4.7-15-5.3-22-2.4c-4,1.6-7.5,4.3-10.2,8.1
				c-2.9,4.2-4.3,9-4.2,13.8c4.5-1.3,9.5-1,14.3,0.8c2,0.7,3.9,1.7,5.7,3c4.4,3,7.5,7.1,9.1,11.5c0.7,2,1.2,4,1.3,6
				c3.5-1.2,6.7-3.2,9.4-6C56.5,97.9,57.3,97,57.9,96.1z"/>
			<path class="st0" d="M33.4,90.8c-1-0.7-2.1-1.3-3.2-1.8c-7.3-3.4-15.7-2.4-20.1,3.2c-1.6,2-3.4,4.2-5.2,6.5
				c-2.2,2.7-4.4,5.6-6.6,8.4l31.8,22.2c0,0,0-0.1,0.1-0.1c3.4-5.6,7-11.4,9.9-16.1c2.6-4.3,2.5-9.6,0.1-14.4
				C38.8,95.7,36.5,92.9,33.4,90.8z"/>
			<path class="st0" d="M-22.2,144.6c0,0.1,0,0.3,0,0.4c0.2,13.2-2.8,29.3-2.8,29.3s9.3-5.5,19.4-9.9c2.4-1,4.8-2,7.2-2.8
				c0.1-0.1,0.2-0.1,0.4-0.1l-7.5-5.3L-22.2,144.6z"/>
			<path class="st0" d="M-6.9,134.5l-10.6-7.4c-1.9,2.4-3.2,4.2-3.9,7.4c0,0.1,0,0.1-0.1,0.2l15.9,11.1L11,157.4
				c2.9-1.8,4.2-3.7,5.8-6.3l-22.4-15.6L-6.9,134.5z"/>
		</g>
	</g>
</g>
<g id="Layer_1" class="st1">
	<g class="st2">
		<path class="st0" d="M52,13.1c-1.8-0.1-2.9-0.1-4.8-0.3c-10.1-1.1-12.1-6.1-11-15.5c1.3-12.1,5.7-14.1,14.1-13.2
			c1.9,0.2,3,0.4,4.8,0.7c2.1,0.4,2.5,1.1,2.4,2.2l-0.1,1.3c-0.2,1.8-0.7,2.4-2.3,2.2c-1.5-0.2-2.9-0.5-4.5-0.7
			c-1.3-0.1-3.5-0.2-4.4,0C43.8-9.4,43.5-6.4,43-2c-0.5,4.3-0.7,7.7,2.7,8.7c0.7,0.2,1.8,0.4,3.1,0.5c1.5,0.2,3,0.1,4.5,0.3
			c1.7,0.2,2,0.8,1.8,2.6L55,11.4C54.7,12.6,54.1,13.2,52,13.1z"/>
		<path class="st0" d="M66.1,17.8c-6.9-2.6-8-7.5-5.7-13.5c2.3-6.1,6.4-9,13.3-6.3c6.9,2.6,8,7.5,5.7,13.6
			C77.1,17.5,73,20.4,66.1,17.8z M74.3,4.8c-0.1-0.8-0.2-1.2-2.5-2.1c-2.2-0.9-2.6-0.6-3.2-0.1c-0.7,0.6-1.4,1.7-2.2,3.9
			s-1.1,3.5-0.9,4.4c0.1,0.7,0.3,1.2,2.5,2c2.2,0.9,2.6,0.6,3.2,0.1c0.7-0.5,1.4-1.7,2.2-3.9C74.3,7,74.5,5.7,74.3,4.8z"/>
		<path class="st0" d="M92.1,32.1l-1.2-0.9c-1.4-1-2-1.8-0.9-3.4l6-8.4c1.1-1.5,1.6-2.4,0.8-3.1c-1.4-1-3-1.2-5-1.1l-6.6,9.2
			c-0.7,1-1.7,1.6-3.1,0.6l-1.2-0.9c-1.4-1-2-1.8-0.9-3.4L89.1,8c1-1.3,2-1.3,3.2-0.5l1.5,1.1c0.8,0.5,0.9,1.2,0.9,1.8
			c2,0.2,3.8,0.8,5.4,2c4.5,3.2,3.7,6.8,2.2,9l-7.1,10.1C94.4,32.5,93.4,33.1,92.1,32.1z"/>
		<path class="st0" d="M114.8,34.3l-2.1-2.4l-6.3,5.6c-1.1,1-1.3,1.3-1.1,1.5c0.8,0.9,2,1.3,2.8,2.1c0.9,1,0.3,1.9-0.2,2.4l-1.1,1
			c-1.2,1.1-2,1.1-3.2-0.1c-1-0.9-1.7-1.6-2.7-2.6c-3.2-3.6-2.6-5.7,1.1-9l6.4-5.7c-1-1.2-0.8-2.2,0.2-3.1l0.7-0.6
			c1.1-1,2.4-0.4,3,0.2l2.2-2c1.2-1.1,2.3-0.9,3.2,0.2l1.3,1.4c1.1,1.2,0.4,2.5-0.3,3.1l-2.2,2l2.1,2.4c0.9,1,1.3,2.1,0.1,3.2
			l-0.4,0.4C117.2,35.4,116.2,35.8,114.8,34.3z"/>
		<path class="st0" d="M115.1,62l-0.6-1.1c-0.6-1.1-0.9-1.9-0.3-2.7c-1.9-1.2-3.4-2.7-4.4-4.5c-2.1-3.8-1.2-6.8,2.4-8.9
			c5.2-3,8.3,0.4,10.7,4.6c0.5,0.9,1,1.8,1.4,2.7c1.9-1.1,2.9-1.8,2.1-3.2c-0.7-1.3-2.4-3.5-3.8-5c-0.2-0.2-0.3-0.4-0.5-0.7
			c-0.6-1.1-0.1-2,0.6-2.4l0.8-0.4c0.8-0.4,1.8-0.7,2.7,0.3c1.3,1.5,3.2,4,4.1,5.7c0.9,1.5,2.2,4.3,1.4,6.6
			c-0.6,1.9-1.6,2.9-5.1,4.8l-8.4,4.8C117,63.3,116,63.4,115.1,62z M120.6,54.2c-0.2-0.4-0.4-1-0.7-1.4c-1.7-3-2.8-4-4.5-3
			c-1,0.6-1.9,1.5-1.5,2.2c1.1,1.9,1.9,2.5,4.1,3.7L120.6,54.2z"/>
		<path class="st0" d="M121,80.2c-0.5-1.1-0.8-2.2-1.2-3.4c-2.3-7.6-0.7-10.3,7.3-12.7c7.9-2.4,10.8-1,13.1,6.6
			c0.4,1.2,0.6,2.3,0.8,3.5c0.6,2.8,0.1,2.9-1,3.2c-1.3,0.4-3.5,1.1-4-0.9c-0.2-0.7-0.6-3.7-1.1-5.5c-0.6-2.2-1.3-1.8-3.1-1.4
			c-1,0.2-2.2,0.6-2.8,0.7c-1.1,0.3-2.6,0.9-3.7,1.3c-1.2,0.5-1.4,0.8-0.9,2.5c0.6,1.9,1.9,4.6,2.1,5.2c0.1,0.4,0.2,1-0.2,1.5
			c-0.2,0.3-1.4,1.1-2.7,1.5C122.6,82.7,122.1,82.8,121,80.2z"/>
		<path class="st0" d="M138.4,95.6l-0.3-3.2l-8.4,0.7c-1.4,0.1-1.8,0.3-1.8,0.6c0.1,1.2,0.8,2.2,0.9,3.4c0.1,1.4-0.9,1.7-1.6,1.8
			l-1.5,0.1c-1.6,0.1-2.2-0.3-2.5-2c-0.2-1.4-0.4-2.3-0.5-3.7c-0.4-4.8,1.4-6.1,6.3-6.5l8.5-0.7c-0.1-1.6,0.7-2.3,2.1-2.4l0.9-0.1
			c1.5-0.1,2.1,1.1,2.2,2l3-0.3c1.7-0.1,2.3,0.7,2.5,2.1l0.2,1.9c0.1,1.7-1.2,2.3-2.1,2.3l-3,0.3l0.3,3.2c0.1,1.3-0.3,2.4-1.8,2.6
			l-0.6,0.1C139.6,97.9,138.5,97.7,138.4,95.6z"/>
	</g>
	<g class="st2">
		<path class="st0" d="M-5.6,114.7l-1.4-0.9c-2,2.5-3.7,4.7-5.3,6.7l6.7,4.7l13.5,9.4l13.4,9.3c1.3-2.1,2.8-4.6,4.5-7.3l-3-2.1
			L-5.6,114.7z"/>
		<path class="st0" d="M-5.6,86.8C-0.5,87,5,86.3,10.8,84.6c-3.4-5.8-6.7-13.7-10-21.7C-1.3,58-3.4,53-5.6,48.5
			c-1.2-2.5-2.5-4.8-3.7-6.9c-6-9.8-12.8-14.6-21.5-6.2c-8.3,8.1-10.5,18.3-8.1,27.5c2.4,9.1,9.4,17.2,19.8,21.2
			C-15.1,85.7-10.5,86.7-5.6,86.8z"/>
		<path class="st0" d="M101.8,116.3c-2.2-0.9-4.7-1.7-7.6-2.3c-8.1-1.6-18.4-2-28.2-2.5c-7-0.3-13.7-0.8-19.1-1.7
			c0.7,10.2,3.7,18.4,8.1,24.6c0.8,1.2,1.7,2.3,2.6,3.3c12.4,14,32.5,15.2,44.1,2.8c2.2-2.4,4.1-5.2,5.6-8.6
			C111.2,123.8,108.2,119.1,101.8,116.3z"/>
		<path class="st0" d="M57.9,96c7.3-10.5,4.8-24.8-5.7-32.2c-6.7-4.7-15-5.3-22-2.4c-4,1.6-7.5,4.3-10.2,8.1
			c-2.9,4.2-4.3,9-4.2,13.8c4.5-1.3,9.5-1,14.3,0.8c2,0.7,3.9,1.7,5.7,3c4.4,3,7.5,7.1,9.1,11.5c0.7,2,1.2,4,1.3,6
			c3.5-1.2,6.7-3.2,9.4-6C56.5,97.9,57.3,97,57.9,96z"/>
		<path class="st0" d="M33.4,90.8c-1-0.7-2.1-1.3-3.2-1.8c-7.3-3.4-15.7-2.4-20.1,3.2c-1.6,2-3.4,4.2-5.2,6.5
			c-2.2,2.7-4.4,5.6-6.6,8.4l31.8,22.2c0,0,0-0.1,0.1-0.1c3.4-5.6,7-11.4,9.9-16.1c2.6-4.3,2.5-9.6,0.1-14.4
			C38.8,95.7,36.5,92.9,33.4,90.8z"/>
		<path class="st0" d="M-22.2,144.6c0,0.1,0,0.3,0,0.4c0.2,13.2-2.8,29.3-2.8,29.3s9.3-5.5,19.4-9.9c2.4-1,4.8-2,7.2-2.8
			c0.1-0.1,0.2-0.1,0.4-0.1l-7.5-5.3L-22.2,144.6z"/>
		<path class="st0" d="M-7,134.5l-10.6-7.4c-1.9,2.4-3.2,4.2-3.9,7.4c0,0.1,0,0.1-0.1,0.2l15.9,11.1l16.6,11.6
			c2.9-1.8,4.2-3.7,5.8-6.3l-22.4-15.6L-7,134.5z"/>
	</g>
	<rect x="-107" y="-41.5" class="st3" width="283.5" height="283.5"/>
</g>
</svg>
