<?xml version="1.0" encoding="utf-8"?>
<!-- Generator: Adobe Illustrator 19.1.0, SVG Export Plug-In . SVG Version: 6.00 Build 0)  -->
<!DOCTYPE svg PUBLIC "-//W3C//DTD SVG 1.1//EN" "http://www.w3.org/Graphics/SVG/1.1/DTD/svg11.dtd">
<svg version="1.1" id="Layer_2" xmlns="http://www.w3.org/2000/svg" xmlns:xlink="http://www.w3.org/1999/xlink" x="0px" y="0px"
	 viewBox="-107 -41.5 283.5 283.5" style="enable-background:new -107 -41.5 283.5 283.5;" xml:space="preserve">
<style type="text/css">
	.st0{fill:#FFFFFF;}
</style>
<g>
	<g>
		<path class="st0" d="M48.6,11.6l-1.8,0c-1.6,0-2.2-0.9-2.3-2.2L43.8-4.9c-1.6,4-3.2,8.7-4.3,11.5c-0.5,1.1-1.1,1.9-2.8,1.9l-1.1,0
			c-1.6,0-2.3-0.8-2.7-2C31.8,3.7,30.3-1,28.8-5.1L27.7,9.2c-0.1,1.3-0.7,2.2-2.3,2.2l-1.8,0c-1.5,0-2.7-0.5-2.5-2.4l2.5-23.6
			c0.2-1.8,1.4-2,2.5-2l2.4,0c1.4,0,2.1,0.5,2.6,1.6c1.4,3.5,3.5,9.7,5.3,14.7c1.9-4.9,4.2-11.1,5.7-14.5c0.5-1.1,1.2-1.5,2.6-1.5
			l2.4,0c1.1,0,2.3,0.2,2.5,2.1l1.8,23.6C51.3,11.2,50.1,11.6,48.6,11.6z"/>
		<path class="st0" d="M71.2,10.1l-9.4-3c-1,2.6-0.8,3.9,2.1,4.8c1.8,0.6,3.6,0.8,5.5,1c0.5,0,0.9,0.1,1.1,0.1
			c1.6,0.5,1.1,2.1,0.8,3.2c-0.3,1-0.9,1.8-2.5,1.6c-2.1-0.3-4.5-0.9-6.3-1.5c-7.5-2.4-8.1-6.4-5.9-13c2-6.3,4.6-9.9,12.3-7.4
			c7.2,2.3,7.2,6.6,5.4,12C73.4,10.7,72.9,10.7,71.2,10.1z M69.2,4.1c0.6-1.8,0.5-2.7-1.8-3.4c-2.6-0.8-3.4,0.1-4.3,2.5L68.9,5
			L69.2,4.1z"/>
		<path class="st0" d="M77.9,22.6l-1.3-0.7c-1.5-0.8-2.2-1.6-1.2-3.3L86.9-2.8c0.8-1.5,1.8-1.6,3.1-0.9l1.7,0.9
			c1.5,0.8,1.2,2.2,0.8,3L80.9,21.6C80.3,22.7,79.4,23.4,77.9,22.6z"/>
		<path class="st0" d="M96.6,36.1l-1.1-0.9c-0.8-0.7-1.4-1.3-1.3-2c-2-0.5-3.5-1.3-4.8-2.4c-4.2-3.5-3.7-8.3,0.3-13.1
			c4.6-5.7,9.3-6.6,14.3-2.5c0.8,0.7,1.8,1.6,2.5,2.4l3.9-4.8c1.1-1.3,2.1-1.2,3.2-0.3l1.4,1.2c1.3,1.1,0.8,2.5,0.3,3.1L99.8,35.7
			C98.9,36.7,97.9,37.2,96.6,36.1z M102.9,21.8c-0.9-1.1-1.8-2.1-2.5-2.7c-0.7-0.5-0.9-0.7-1.3-0.7c-0.8-0.2-2.2,0.4-4.9,3.7
			c-1.1,1.4-2.7,3.7-0.9,5.2c0.8,0.7,2.4,1.2,4.1,1.3L102.9,21.8z"/>
		<path class="st0" d="M115,61.6l-1-1.6c-0.4-0.8-0.2-1.5,0-2.1c-1.7-1-3.2-2.2-4.2-4c-2.8-4.8-0.6-7.7,1.8-9.1l10.6-6.2
			c1.1-0.6,2.2-0.7,3,0.7l0.8,1.3c0.8,1.5,1.1,2.5-0.6,3.5l-8.9,5.1c-1.6,0.9-2.5,1.6-2,2.4c0.8,1.5,2,2.1,4.1,3.1l9.7-5.6
			c1.1-0.6,2.2-0.7,3,0.7l0.8,1.3c0.8,1.5,1.1,2.5-0.6,3.5l-13.5,7.8C116.7,63.3,115.8,62.8,115,61.6z"/>
		<path class="st0" d="M123.4,91.5l-0.2-1.3c-0.2-1.2-0.2-2.1,0.6-2.6c-1.4-1.7-2.3-3.7-2.6-5.7c-0.7-4.3,1.2-6.8,5.3-7.5
			c5.9-1,7.6,3.2,8.5,7.9c0.2,1,0.3,2,0.4,3c2.2-0.4,3.3-0.7,3-2.3c-0.3-1.4-1.1-4.1-1.9-6c-0.1-0.2-0.2-0.5-0.2-0.8
			c-0.2-1.3,0.6-1.9,1.4-2l0.9-0.2c0.9-0.2,2,0,2.4,1.2c0.7,1.9,1.6,4.9,1.9,6.7c0.3,1.7,0.6,4.8-0.9,6.7c-1.2,1.6-2.5,2.1-6.4,2.8
			l-9.6,1.7C124.7,93.4,123.7,93.1,123.4,91.5z M131.2,86.1c-0.1-0.5-0.1-1-0.2-1.6c-0.6-3.4-1.3-4.7-3.2-4.3
			c-1.2,0.2-2.3,0.7-2.2,1.6c0.4,2.1,0.9,3,2.6,4.9L131.2,86.1z"/>
		<path class="st0" d="M123,112.7l0.1-1.3c0.1-1.2,0.3-2.1,1.2-2.4c-0.9-2-1.3-4.2-1.2-6.1c0.3-4.3,2.7-6.3,6.9-6.1
			c6,0.4,6.7,4.9,6.4,9.7c-0.1,1-0.2,2.1-0.3,3c2.2,0.1,3.4,0.1,3.5-1.5c0.1-1.5-0.1-4.3-0.4-6.3c0-0.3-0.1-0.5,0-0.8
			c0.1-1.3,1-1.7,1.8-1.6l0.9,0.1c0.9,0.1,1.9,0.4,2.1,1.7c0.2,2,0.4,5.1,0.3,7c-0.1,1.7-0.5,4.8-2.4,6.3c-1.6,1.2-2.9,1.5-6.9,1.2
			l-9.7-0.6C123.8,114.9,122.9,114.4,123,112.7z M131.9,109.3c0-0.5,0.2-1,0.2-1.6c0.2-3.5-0.1-4.8-2.1-5c-1.2-0.1-2.5,0.2-2.5,1
			c-0.1,2.1,0.2,3.2,1.3,5.3L131.9,109.3z"/>
		<path class="st0" d="M117.1,134.3l0.5-1.4c0.5-1.6,1.1-2.5,3-1.9l9.9,3.2c1.8,0.6,2.8,0.8,3.1-0.2c0.5-1.6,0.2-3.2-0.5-5.1
			l-10.8-3.5c-1.2-0.4-2-1.2-1.5-2.7l0.5-1.4c0.5-1.6,1.1-2.5,3-1.9l14.9,4.8c1.6,0.5,1.9,1.5,1.4,2.9l-0.6,1.8
			c-0.3,0.9-0.8,1.2-1.4,1.4c0.4,1.9,0.4,3.8-0.2,5.8c-1.7,5.3-5.3,5.6-7.9,4.8l-11.8-3.8C117.4,136.6,116.6,135.8,117.1,134.3z"/>
	</g>
	<g>
		<path class="st0" d="M-5.5,114.7l-1.4-0.9c-2,2.5-3.7,4.7-5.3,6.7l6.7,4.7l13.5,9.4l13.4,9.3c1.3-2.1,2.8-4.6,4.5-7.3l-3-2.1
			L-5.5,114.7z"/>
		<path class="st0" d="M-5.5,86.8C-0.5,87,5,86.3,10.9,84.6c-3.4-5.8-6.7-13.7-10-21.7C-1.2,58-3.3,53-5.5,48.5
			C-6.8,46-8,43.7-9.3,41.6c-6-9.8-12.8-14.6-21.5-6.2c-8.3,8.1-10.5,18.3-8.1,27.5c2.4,9.1,9.4,17.2,19.8,21.2
			C-15,85.7-10.5,86.7-5.5,86.8z"/>
		<path class="st0" d="M101.8,116.3c-2.2-0.9-4.7-1.7-7.6-2.3c-8.1-1.6-18.4-2-28.2-2.5c-7-0.3-13.7-0.8-19.1-1.7
			c0.7,10.2,3.7,18.4,8.1,24.6c0.8,1.2,1.7,2.3,2.6,3.3c12.4,14,32.5,15.2,44.1,2.8c2.2-2.4,4.1-5.2,5.6-8.6
			C111.2,123.8,108.3,119.1,101.8,116.3z"/>
		<path class="st0" d="M57.9,96.1c7.3-10.5,4.8-24.8-5.7-32.2c-6.7-4.7-15-5.3-22-2.4c-4,1.6-7.5,4.3-10.2,8.1
			c-2.9,4.2-4.3,9-4.2,13.8c4.5-1.3,9.5-1,14.3,0.8c2,0.7,3.9,1.7,5.7,3c4.4,3,7.5,7.1,9.1,11.5c0.7,2,1.2,4,1.3,6
			c3.5-1.2,6.7-3.2,9.4-6C56.5,97.9,57.3,97,57.9,96.1z"/>
		<path class="st0" d="M33.4,90.8c-1-0.7-2.1-1.3-3.2-1.8c-7.3-3.4-15.7-2.4-20.1,3.2c-1.6,2-3.4,4.2-5.2,6.5
			c-2.2,2.7-4.4,5.6-6.6,8.4l31.8,22.2c0,0,0-0.1,0.1-0.1c3.4-5.6,7-11.4,9.9-16.1c2.6-4.3,2.5-9.6,0.1-14.4
			C38.8,95.7,36.5,92.9,33.4,90.8z"/>
		<path class="st0" d="M-22.2,144.6c0,0.1,0,0.3,0,0.4c0.2,13.2-2.8,29.3-2.8,29.3s9.3-5.5,19.4-9.9c2.4-1,4.8-2,7.2-2.8
			c0.1-0.1,0.2-0.1,0.4-0.1l-7.5-5.3L-22.2,144.6z"/>
		<path class="st0" d="M-6.9,134.5l-10.6-7.4c-1.9,2.4-3.2,4.2-3.9,7.4c0,0.1,0,0.1-0.1,0.2l15.9,11.1L11,157.4
			c2.9-1.8,4.2-3.7,5.8-6.3l-22.4-15.6L-6.9,134.5z"/>
	</g>
</g>
</svg>
