<?xml version="1.0" encoding="utf-8"?>
<!-- Generator: Adobe Illustrator 19.1.0, SVG Export Plug-In . SVG Version: 6.00 Build 0)  -->
<!DOCTYPE svg PUBLIC "-//W3C//DTD SVG 1.0//EN" "http://www.w3.org/TR/2001/REC-SVG-20010904/DTD/svg10.dtd">
<svg version="1.0" id="Layer_1" xmlns="http://www.w3.org/2000/svg" xmlns:xlink="http://www.w3.org/1999/xlink" x="0px" y="0px"
	 viewBox="0 0 50 50" style="enable-background:new 0 0 50 50;" xml:space="preserve">
<style type="text/css">
	.st0{fill:#FFFFFF;}
</style>
<g>
	<g>
		<path class="st0" d="M20.8,17.3c0,1.4-1.1,2.5-2.5,2.5s-2.4-1.1-2.4-2.5s1.1-2.5,2.4-2.5S20.8,16,20.8,17.3z M16.3,35.2V21.3h4
			v13.9H16.3z M26.3,21.3v0.6c1.5-0.8,3.7-0.6,5.2,0.1c1.6,0.9,2.7,2.8,2.7,4.6v8.5h-4v-8.5c0-0.4-0.4-1-0.7-1.1
			c-1.6-0.9-3.2,0.7-3.2,0.7v8.9h-4V21.3H26.3z"/>
	</g>
</g>
</svg>
