<?xml version="1.0" encoding="utf-8"?>
<!-- Generator: Adobe Illustrator 19.1.0, SVG Export Plug-In . SVG Version: 6.00 Build 0)  -->
<!DOCTYPE svg PUBLIC "-//W3C//DTD SVG 1.0//EN" "http://www.w3.org/TR/2001/REC-SVG-20010904/DTD/svg10.dtd">
<svg version="1.0" id="Layer_1" xmlns="http://www.w3.org/2000/svg" xmlns:xlink="http://www.w3.org/1999/xlink" x="0px" y="0px"
	 viewBox="0 0 50 50" style="enable-background:new 0 0 50 50;" xml:space="preserve">
<style type="text/css">
	.st0{fill:#FFFFFF;}
</style>
<g>
	<path class="st0" d="M34.8,20.3c-0.4-3.7-3.8-6.9-7.8-7.3c-6.2-0.7-11.8,3.1-11.8,9.1c0,2.9,0.9,4.7,3.4,5.7
		c1.7-1.7-0.3-2.8-0.5-4.7c-0.5-5.1,5.5-10,10.8-6.8c3.7,2.2,3.1,11.6-1.4,12.6c-0.9,0.1-2.1-0.1-2.5-0.5c-2.2-2.1,1.7-5.6,0.5-8.5
		c-1.1-2.5-4.2-0.5-4.5,1.7c-0.2,1.2,0.4,2.3,0.4,3.4c0,2.5-1.5,5.9-1.9,8.3c-0.2,1-0.3,3-0.1,4h-0.1h1.7c1.1-1.9,1.9-4.9,2.5-7.4
		c0.4-0.3,0.5,0.5,0.8,0.7c2.1,1.6,5.9,0.7,7.5-0.8C34.1,27.6,35.1,23.5,34.8,20.3z"/>
</g>
</svg>
