<?xml version="1.0" encoding="utf-8"?>
<!-- Generator: Adobe Illustrator 19.1.0, SVG Export Plug-In . SVG Version: 6.00 Build 0)  -->
<!DOCTYPE svg PUBLIC "-//W3C//DTD SVG 1.0//EN" "http://www.w3.org/TR/2001/REC-SVG-20010904/DTD/svg10.dtd">
<svg version="1.0" id="Layer_1" xmlns="http://www.w3.org/2000/svg" xmlns:xlink="http://www.w3.org/1999/xlink" x="0px" y="0px"
	 viewBox="0 0 50 50" style="enable-background:new 0 0 50 50;" xml:space="preserve">
<style type="text/css">
	.st0{fill:#324300;}
</style>
<path class="st0" d="M33.3,33.3c-0.6,0.6-1.6,0.6-2.3,0l-4.7-4.7c-1,0.6-2.2,1-3.5,1c-3.7,0-6.7-3-6.7-6.7c0-3.7,3-6.7,6.7-6.7
	c3.7,0,6.7,3,6.7,6.7c0,1.3-0.4,2.4-1,3.4l4.7,4.7C34,31.7,34,32.7,33.3,33.3z M27.7,22.9c0-2.7-2.2-4.8-4.8-4.8S18,20.3,18,22.9
	s2.2,4.8,4.8,4.8S27.7,25.6,27.7,22.9z"/>
</svg>
