<?xml version="1.0" encoding="utf-8"?>
<!-- Generator: Adobe Illustrator 19.1.0, SVG Export Plug-In . SVG Version: 6.00 Build 0)  -->
<!DOCTYPE svg PUBLIC "-//W3C//DTD SVG 1.0//EN" "http://www.w3.org/TR/2001/REC-SVG-20010904/DTD/svg10.dtd">
<svg version="1.0" id="Layer_1" xmlns="http://www.w3.org/2000/svg" xmlns:xlink="http://www.w3.org/1999/xlink" x="0px" y="0px"
	 viewBox="0 0 50 50" style="enable-background:new 0 0 50 50;" xml:space="preserve">
<style type="text/css">
	.st0{fill:#FFFFFF;}
</style>
<g>
	<path class="st0" d="M30.3,30.6c-1.2,0-2.5-0.6-3.2-1.6c-1.2,0.9-2.2,1.4-3.8,1.4c-2.1,0-3.1-1.1-3.1-3.1c0-2.4,1.6-3.1,3.5-3.3
		c1.1-0.1,2.3-0.2,2.7-0.2c0-0.6,0-1.2-0.2-1.5c-0.1-0.3-0.5-0.5-0.9-0.5c-0.9,0-2.3,0.3-3.2,0.5c-0.1,0-0.3,0.1-0.4,0.1
		c-0.5,0-0.7-0.3-0.7-0.7V21c0-0.4,0.1-0.8,0.6-0.9c0.7-0.2,2.6-0.4,3.5-0.4c0.9,0,2.4,0.1,3.1,1c0.6,0.7,0.8,1.3,0.8,3.4v1.5
		c0,0.9,0,1.4,0.1,1.8c0.1,0.6,0.5,0.9,1.1,0.9c0.8,0,1.4-0.4,1.4-2.7c0-4.9-0.7-8.3-6.4-8.3c-6.1,0-7.3,2.5-7.3,8
		c0,4.4,1.4,7.3,6.3,7.3c1.7,0,3.1-0.4,4.2-0.8c0.2-0.1,0.3-0.1,0.3-0.1c0.2,0,0.4,0.1,0.5,0.3l0.3,0.8c0.3,0.6,0,0.9-0.6,1.1
		c-1.6,0.6-3.7,0.8-5.1,0.8c-6.4,0-8.8-4.2-8.8-9.8c0-6.7,3.2-9.9,10-9.9c6.9,0,9.2,3.9,9.2,10C34.6,28.7,33.1,30.6,30.3,30.6z
		 M26.5,25.7c-0.4,0-0.7,0-1.1,0c-2.1,0-2.6,0.2-2.6,1.4c0,0.8,0.2,1.4,0.8,1.4c1,0,2-0.4,3-1.1C26.6,27.1,26.5,26,26.5,25.7z"/>
</g>
</svg>
