<?xml version="1.0" encoding="utf-8"?>
<!-- Generator: Adobe Illustrator 19.1.0, SVG Export Plug-In . SVG Version: 6.00 Build 0)  -->
<!DOCTYPE svg PUBLIC "-//W3C//DTD SVG 1.0//EN" "http://www.w3.org/TR/2001/REC-SVG-20010904/DTD/svg10.dtd">
<svg version="1.0" id="Layer_1" xmlns="http://www.w3.org/2000/svg" xmlns:xlink="http://www.w3.org/1999/xlink" x="0px" y="0px"
	 viewBox="0 0 50 50" style="enable-background:new 0 0 50 50;" xml:space="preserve">
<style type="text/css">
	.st0{fill:#FFFFFF;}
</style>
<path class="st0" d="M34.5,23v7.8c0,2-1.6,3.7-3.7,3.7H19.2c-2,0-3.7-1.6-3.7-3.7V23v-3.9c0-2,1.6-3.7,3.7-3.7h11.7
	c2,0,3.7,1.6,3.7,3.7V23z M25,28.3c1.8,0,3.3-1.5,3.3-3.3c0-0.7-0.2-1.4-0.6-1.9c-0.6-0.8-1.6-1.4-2.7-1.4c-1.1,0-2.1,0.6-2.7,1.4
	c-0.4,0.5-0.6,1.2-0.6,1.9C21.7,26.8,23.2,28.3,25,28.3z M32.3,20.9v-2.8v-0.4l-0.4,0l-2.8,0l0,3.2L32.3,20.9z M30.2,25
	c0,2.9-2.3,5.2-5.2,5.2s-5.2-2.3-5.2-5.2c0-0.7,0.1-1.3,0.4-1.9h-2.8v7.8c0,1,0.8,1.8,1.8,1.8h11.7c1,0,1.8-0.8,1.8-1.8V23h-2.8
	C30.1,23.7,30.2,24.3,30.2,25z"/>
</svg>
