<?xml version="1.0" encoding="utf-8"?>
<!-- Generator: Adobe Illustrator 18.1.0, SVG Export Plug-In . SVG Version: 6.00 Build 0)  -->
<svg version="1.1" id="Layer_1" xmlns="http://www.w3.org/2000/svg" xmlns:xlink="http://www.w3.org/1999/xlink" x="0px" y="0px"
	 viewBox="0 0 283.5 283.5" enable-background="new 0 0 283.5 283.5" xml:space="preserve">
<g>
	<path fill="#FFFFFF" d="M159,54.6c-1.8-0.1-2.9-0.1-4.8-0.3c-10.1-1.1-12.1-6.1-11-15.5c1.3-12.1,5.7-14.1,14.1-13.2
		c1.9,0.2,3,0.4,4.8,0.7c2.1,0.4,2.5,1.1,2.4,2.2l-0.1,1.3c-0.2,1.8-0.7,2.4-2.3,2.2c-1.5-0.2-2.9-0.5-4.5-0.7
		c-1.3-0.1-3.5-0.2-4.4,0c-2.4,0.8-2.7,3.8-3.2,8.2c-0.5,4.3-0.7,7.7,2.7,8.7c0.7,0.2,1.8,0.4,3.1,0.5c1.5,0.2,3,0.1,4.5,0.3
		c1.7,0.2,2,0.8,1.8,2.6l-0.1,1.3C161.7,54.1,161.1,54.7,159,54.6z"/>
	<path fill="#FFFFFF" d="M173.1,59.3c-6.9-2.6-8-7.5-5.7-13.5c2.3-6.1,6.4-9,13.3-6.3c6.9,2.6,8,7.5,5.7,13.6
		C184.1,59,180,61.9,173.1,59.3z M181.3,46.3c-0.1-0.8-0.2-1.2-2.5-2.1c-2.2-0.9-2.6-0.6-3.2-0.1c-0.7,0.6-1.4,1.7-2.2,3.9
		c-0.8,2.2-1.1,3.5-0.9,4.4c0.1,0.7,0.3,1.2,2.5,2c2.2,0.9,2.6,0.6,3.2,0.1c0.7-0.5,1.4-1.7,2.2-3.9
		C181.3,48.5,181.5,47.2,181.3,46.3z"/>
	<path fill="#FFFFFF" d="M199.1,73.6l-1.2-0.9c-1.4-1-2-1.8-0.9-3.4l6-8.4c1.1-1.5,1.6-2.4,0.8-3.1c-1.4-1-3-1.2-5-1.1l-6.6,9.2
		c-0.7,1-1.7,1.6-3.1,0.6l-1.2-0.9c-1.4-1-2-1.8-0.9-3.4l9.1-12.7c1-1.3,2-1.3,3.2-0.5l1.5,1.1c0.8,0.5,0.9,1.2,0.9,1.8
		c2,0.2,3.8,0.8,5.4,2c4.5,3.2,3.7,6.8,2.2,9L202.2,73C201.4,74,200.4,74.6,199.1,73.6z"/>
	<path fill="#FFFFFF" d="M221.8,75.8l-2.1-2.4l-6.3,5.6c-1.1,1-1.3,1.3-1.1,1.5c0.8,0.9,2,1.3,2.8,2.1c0.9,1,0.3,1.9-0.2,2.4l-1.1,1
		c-1.2,1.1-2,1.1-3.2-0.1c-1-0.9-1.7-1.6-2.7-2.6c-3.2-3.6-2.6-5.7,1.1-9l6.4-5.7c-1-1.2-0.8-2.2,0.2-3.1l0.7-0.6
		c1.1-1,2.4-0.4,3,0.2l2.2-2c1.2-1.1,2.3-0.9,3.2,0.2l1.3,1.4c1.1,1.2,0.4,2.5-0.3,3.1l-2.2,2l2.1,2.4c0.9,1,1.3,2.1,0.1,3.2
		l-0.4,0.4C224.2,76.9,223.2,77.3,221.8,75.8z"/>
	<path fill="#FFFFFF" d="M222.1,103.5l-0.6-1.1c-0.6-1.1-0.9-1.9-0.3-2.7c-1.9-1.2-3.4-2.7-4.4-4.5c-2.1-3.8-1.2-6.8,2.4-8.9
		c5.2-3,8.3,0.4,10.7,4.6c0.5,0.9,1,1.8,1.4,2.7c1.9-1.1,2.9-1.8,2.1-3.2c-0.7-1.3-2.4-3.5-3.8-5c-0.2-0.2-0.3-0.4-0.5-0.7
		c-0.6-1.1-0.1-2,0.6-2.4l0.8-0.4c0.8-0.4,1.8-0.7,2.7,0.3c1.3,1.5,3.2,4,4.1,5.7c0.9,1.5,2.2,4.3,1.4,6.6c-0.6,1.9-1.6,2.9-5.1,4.8
		l-8.4,4.8C224,104.8,223,104.9,222.1,103.5z M227.6,95.7c-0.2-0.4-0.4-1-0.7-1.4c-1.7-3-2.8-4-4.5-3c-1,0.6-1.9,1.5-1.5,2.2
		c1.1,1.9,1.9,2.5,4.1,3.7L227.6,95.7z"/>
	<path fill="#FFFFFF" d="M228,121.7c-0.5-1.1-0.8-2.2-1.2-3.4c-2.3-7.6-0.7-10.3,7.3-12.7c7.9-2.4,10.8-1,13.1,6.6
		c0.4,1.2,0.6,2.3,0.8,3.5c0.6,2.8,0.1,2.9-1,3.2c-1.3,0.4-3.5,1.1-4-0.9c-0.2-0.7-0.6-3.7-1.1-5.5c-0.6-2.2-1.3-1.8-3.1-1.4
		c-1,0.2-2.2,0.6-2.8,0.7c-1.1,0.3-2.6,0.9-3.7,1.3c-1.2,0.5-1.4,0.8-0.9,2.5c0.6,1.9,1.9,4.6,2.1,5.2c0.1,0.4,0.2,1-0.2,1.5
		c-0.2,0.3-1.4,1.1-2.7,1.5C229.6,124.2,229.1,124.3,228,121.7z"/>
	<path fill="#FFFFFF" d="M245.4,137.1l-0.3-3.2l-8.4,0.7c-1.4,0.1-1.8,0.3-1.8,0.6c0.1,1.2,0.8,2.2,0.9,3.4c0.1,1.4-0.9,1.7-1.6,1.8
		l-1.5,0.1c-1.6,0.1-2.2-0.3-2.5-2c-0.2-1.4-0.4-2.3-0.5-3.7c-0.4-4.8,1.4-6.1,6.3-6.5l8.5-0.7c-0.1-1.6,0.7-2.3,2.1-2.4l0.9-0.1
		c1.5-0.1,2.1,1.1,2.2,2l3-0.3c1.7-0.1,2.3,0.7,2.5,2.1l0.2,1.9c0.1,1.7-1.2,2.3-2.1,2.3l-3,0.3l0.3,3.2c0.1,1.3-0.3,2.4-1.8,2.6
		l-0.6,0.1C246.6,139.4,245.5,139.2,245.4,137.1z"/>
</g>
<g>
	<path fill="#FFFFFF" d="M101.4,156.2l-1.4-0.9c-2,2.5-3.7,4.7-5.3,6.7l6.7,4.7l13.5,9.4l13.4,9.3c1.3-2.1,2.8-4.6,4.5-7.3l-3-2.1
		L101.4,156.2z"/>
	<path fill="#FFFFFF" d="M101.4,128.3c5.1,0.2,10.6-0.5,16.4-2.2c-3.4-5.8-6.7-13.7-10-21.7c-2.1-4.9-4.2-9.9-6.4-14.4
		c-1.2-2.5-2.5-4.8-3.7-6.9c-6-9.8-12.8-14.6-21.5-6.2c-8.3,8.1-10.5,18.3-8.1,27.5c2.4,9.1,9.4,17.2,19.8,21.2
		C91.9,127.2,96.5,128.2,101.4,128.3z"/>
	<path fill="#FFFFFF" d="M208.8,157.8c-2.2-0.9-4.7-1.7-7.6-2.3c-8.1-1.6-18.4-2-28.2-2.5c-7-0.3-13.7-0.8-19.1-1.7
		c0.7,10.2,3.7,18.4,8.1,24.6c0.8,1.2,1.7,2.3,2.6,3.3c12.4,14,32.5,15.2,44.1,2.8c2.2-2.4,4.1-5.2,5.6-8.6
		C218.2,165.3,215.2,160.6,208.8,157.8z"/>
	<path fill="#FFFFFF" d="M164.9,137.5c7.3-10.5,4.8-24.8-5.7-32.2c-6.7-4.7-15-5.3-22-2.4c-4,1.6-7.5,4.3-10.2,8.1
		c-2.9,4.2-4.3,9-4.2,13.8c4.5-1.3,9.5-1,14.3,0.8c2,0.7,3.9,1.7,5.7,3c4.4,3,7.5,7.1,9.1,11.5c0.7,2,1.2,4,1.3,6
		c3.5-1.2,6.7-3.2,9.4-6C163.5,139.4,164.3,138.5,164.9,137.5z"/>
	<path fill="#FFFFFF" d="M140.4,132.3c-1-0.7-2.1-1.3-3.2-1.8c-7.3-3.4-15.7-2.4-20.1,3.2c-1.6,2-3.4,4.2-5.2,6.5
		c-2.2,2.7-4.4,5.6-6.6,8.4l31.8,22.2c0,0,0-0.1,0.1-0.1c3.4-5.6,7-11.4,9.9-16.1c2.6-4.3,2.5-9.6,0.1-14.4
		C145.8,137.2,143.5,134.4,140.4,132.3z"/>
	<path fill="#FFFFFF" d="M84.8,186.1c0,0.1,0,0.3,0,0.4c0.2,13.2-2.8,29.3-2.8,29.3s9.3-5.5,19.4-9.9c2.4-1,4.8-2,7.2-2.8
		c0.1-0.1,0.2-0.1,0.4-0.1l-7.5-5.3L84.8,186.1z"/>
	<path fill="#FFFFFF" d="M100,176l-10.6-7.4c-1.9,2.4-3.2,4.2-3.9,7.4c0,0.1,0,0.1-0.1,0.2l15.9,11.1l16.6,11.6
		c2.9-1.8,4.2-3.7,5.8-6.3l-22.4-15.6L100,176z"/>
</g>
</svg>
